<svg width="118" height="185" viewBox="0 0 118 185" fill="none" xmlns="http://www.w3.org/2000/svg">
<path d="M76.954 0.979606L112.597 18.2455C115.633 19.7164 117.55 22.5496 117.963 25.6396H53.9925L63.9644 5.40414C66.3191 0.625996 72.1347 -1.35493 76.954 0.979606Z" fill="white"/>
<path d="M47.6614 7.16708C46.4326 8.62711 45.3598 10.2559 44.4801 12.0409L37.7788 25.6396H15.6203L24.8805 6.84849C27.2351 2.07035 33.0508 0.08942 37.87 2.42396L47.6614 7.16708Z" fill="white"/>
<path fill-rule="evenodd" clip-rule="evenodd" d="M0 40.0832H118V126.504C118 158.81 91.5848 185 59 185C26.4152 185 0 158.81 0 126.504V40.0832ZM59 170.26C34.1926 170.26 14.0823 150.321 14.0823 125.725V54.2298H103.918V125.725C103.918 150.321 83.8074 170.26 59 170.26ZM89.3498 68.6733H28.6502V125.725C28.6502 142.344 42.2383 155.816 59 155.816C75.7617 155.816 89.3498 142.344 89.3498 125.725V68.6733ZM59.0834 100.601C62.329 100.601 64.9601 97.9919 64.9601 94.774C64.9601 91.5561 62.329 88.9475 59.0834 88.9475C55.8378 88.9475 53.2067 91.5561 53.2067 94.774C53.2067 97.9919 55.8378 100.601 59.0834 100.601ZM64.9601 112.901C64.9601 116.119 62.329 118.727 59.0834 118.727C55.8378 118.727 53.2067 116.119 53.2067 112.901C53.2067 109.683 55.8378 107.074 59.0834 107.074C62.329 107.074 64.9601 109.683 64.9601 112.901ZM59.0834 136.854C62.329 136.854 64.9601 134.246 64.9601 131.028C64.9601 127.81 62.329 125.201 59.0834 125.201C55.8378 125.201 53.2067 127.81 53.2067 131.028C53.2067 134.246 55.8378 136.854 59.0834 136.854Z" fill="white"/>
</svg>
