<svg width="274" height="280" viewBox="0 0 274 280" fill="none" xmlns="http://www.w3.org/2000/svg">
<rect y="101" width="274" height="179" rx="20" fill="#11B1E2"/>
<g clip-path="url(#clip0_2064_47108)">
<g filter="url(#filter0_d_2064_47108)">
<path d="M63.1194 168.568C62.1553 168.568 60.8055 168.231 59.5522 167.556C31.8822 153.094 22 145.574 22 128.316V93.271C22 86.5222 24.2657 83.7263 30.1467 81.2678C34.8227 79.3396 52.0321 73.4103 56.467 72.0605C58.5399 71.4821 61.0465 71 63.1194 71C65.1922 71 67.7471 71.4339 69.82 72.0605C74.2067 73.4585 91.4161 79.3396 96.092 81.2678C102.021 83.7745 104.239 86.5222 104.239 93.271V128.316C104.239 145.574 94.6459 153.576 66.7348 167.556C65.4333 168.183 64.0835 168.568 63.1194 168.568ZM45.1869 136.415C45.1869 138.371 45.6246 139.808 46.5 140.767C47.4154 141.769 48.8096 142.248 50.6823 142.248H75.6046C79.2683 142.248 81.0519 140.416 81.0519 136.415V117.374C81.0519 114.048 79.7503 112.264 77.1954 111.83V106.576C77.1954 97.2239 71.5072 90.9571 63.1194 90.9571C54.7798 90.9571 49.1398 97.2239 49.1398 106.576V111.782C46.5367 112.264 45.1869 114.048 45.1869 117.374V136.415ZM56.226 111.589V106.142C56.226 101.177 58.9737 97.8987 63.1194 97.8987C67.3133 97.8987 70.061 101.177 70.061 106.142V111.589H56.226Z" fill="#4FCB4D"/>
<path fill-rule="evenodd" clip-rule="evenodd" d="M46.5 140.767C45.6246 139.808 45.1869 138.371 45.1869 136.415V117.374C45.1869 114.048 46.5367 112.264 49.1398 111.782V106.576C49.1398 97.2239 54.7798 90.9571 63.1194 90.9571C71.5072 90.9571 77.1954 97.2239 77.1954 106.576V111.83C78.9636 122.231 75.3 142.581 46.5 140.767ZM56.226 111.589V106.142C56.226 101.177 58.9737 97.8987 63.1194 97.8987C67.3133 97.8987 70.061 101.177 70.061 106.142V111.589H56.226Z" fill="white"/>
<path d="M50.6823 142.248H75.6046C79.2683 142.248 81.0519 140.416 81.0519 136.415V117.374C81.0519 114.048 79.7503 112.264 77.1954 111.83C78.9636 122.231 75.3 142.581 46.5 140.767C47.4154 141.769 48.8096 142.248 50.6823 142.248Z" fill="white"/>
</g>
<path d="M60.3071 167.203L60.2962 167.197L60.2853 167.191C46.1174 159.761 36.797 154.254 30.9862 148.506C25.3342 142.916 23 137.09 23 128.745V92.8261C23 89.5691 23.5489 87.5955 24.5455 86.1742C25.5537 84.7363 27.2201 83.5744 30.0903 82.37C34.7865 80.4275 52.2398 74.3915 56.7668 73.0066C58.7926 72.4409 61.1457 72 63 72C64.8817 72 67.287 72.4028 69.2494 72.9966C73.746 74.4354 91.2052 80.4247 95.9058 82.3683C98.8069 83.5999 100.471 84.7617 101.472 86.1916C102.461 87.6037 103 89.5624 103 92.8261V128.745C103 137.112 100.724 143.061 95.1184 148.704C89.3654 154.495 80.0728 159.999 65.8094 167.168C64.6192 167.741 63.5589 168 63 168C62.4028 168 61.3484 167.766 60.3071 167.203Z" stroke="#027A00" stroke-width="4"/>
<path d="M203.756 182.133C223.05 188.962 252.501 200.018 254.973 203.66C257.444 207.303 257.003 253.167 255.973 282L128.231 285.217C128.231 257.441 128.02 209.936 130.426 205.384C132.833 200.831 151.563 191.319 163.758 185.222L203.756 182.133Z" fill="#353535" stroke="black" stroke-width="0.162593"/>
<path d="M172.705 279.607L183.924 268.876L192.054 253.917L207.744 218.635L205.549 185.547L165.957 192.864L162.38 185.953L157.584 199.855L161.242 207.172L155.633 216.358L157.584 232.699L160.836 258.064L172.705 279.607Z" fill="white" stroke="black" stroke-width="0.162593"/>
<path d="M171.645 195.954L172.62 203.19C173.975 202.838 177.043 202.344 179.774 203.19L185.221 189.776C180.744 189.03 178.233 188.478 173.758 188.312L171.645 195.954Z" fill="#1C1C1C"/>
<path d="M179.774 203.19C177.043 202.344 173.975 202.838 172.62 203.19L164.734 262.13L173.758 279.771L185.221 260.423L179.774 203.19Z" fill="#1C1C1C"/>
<path d="M172.625 203.193C173.98 202.841 177.048 202.348 179.779 203.193" stroke="black" stroke-width="1.62593" stroke-linecap="round"/>
<path d="M204.901 177.828C209.941 180.104 215.397 193.762 215.397 193.762L207.339 200.591L210.917 210.146C210.917 210.146 191.893 262.539 174.008 278.555C189.779 245.955 204.901 195.632 204.901 177.828Z" fill="#353535"/>
<path d="M162.625 184.898C157.585 187.175 151.894 200.182 151.894 200.182L159.951 207.011L156.374 216.566C156.374 216.566 155.552 262.049 173.438 278.064C159.942 254.001 162.625 202.702 162.625 184.898Z" fill="#353535"/>
<path d="M215.4 193.762L216.662 195.251C217.302 194.708 217.523 193.818 217.212 193.038L215.4 193.762ZM207.343 200.591L206.081 199.103C205.453 199.635 205.227 200.504 205.516 201.275L207.343 200.591ZM210.92 210.146L212.751 210.821C212.912 210.382 212.911 209.9 212.747 209.462L210.92 210.146ZM173.279 279.774L171.978 281.228C172.719 281.891 173.84 281.891 174.581 281.228L173.279 279.774ZM151.898 200.185L150.111 199.403L149.529 200.734L150.637 201.673L151.898 200.185ZM159.956 207.014L161.783 207.698L162.264 206.412L161.217 205.525L159.956 207.014ZM156.379 216.568L154.552 215.884L154.435 216.196L154.428 216.528L156.379 216.568ZM204.101 179.606C204.9 179.967 205.943 180.919 207.119 182.461C208.253 183.948 209.352 185.771 210.325 187.575C211.293 189.37 212.111 191.104 212.689 192.391C212.977 193.034 213.204 193.562 213.358 193.928C213.435 194.111 213.493 194.253 213.532 194.348C213.552 194.395 213.566 194.431 213.576 194.454C213.58 194.466 213.584 194.475 213.586 194.48C213.587 194.483 213.588 194.484 213.588 194.485C213.588 194.486 213.589 194.486 213.589 194.486C213.589 194.486 213.589 194.486 213.589 194.486C213.589 194.486 213.588 194.486 215.4 193.762C217.212 193.038 217.212 193.038 217.212 193.038C217.212 193.038 217.212 193.037 217.212 193.037C217.211 193.036 217.211 193.035 217.211 193.034C217.21 193.032 217.208 193.029 217.207 193.025C217.204 193.017 217.199 193.006 217.193 192.992C217.182 192.963 217.165 192.922 217.143 192.869C217.1 192.763 217.037 192.609 216.954 192.414C216.79 192.024 216.551 191.468 216.249 190.794C215.646 189.45 214.786 187.626 213.76 185.723C212.738 183.828 211.529 181.809 210.222 180.095C208.958 178.437 207.428 176.827 205.707 176.05L204.101 179.606ZM214.139 192.274L206.081 199.103L208.604 202.08L216.662 195.251L214.139 192.274ZM205.516 201.275L209.093 210.83L212.747 209.462L209.17 199.907L205.516 201.275ZM210.92 210.146C209.089 209.471 209.089 209.471 209.089 209.472C209.089 209.472 209.089 209.472 209.088 209.473C209.088 209.474 209.087 209.477 209.086 209.48C209.084 209.486 209.08 209.495 209.076 209.507C209.067 209.532 209.053 209.57 209.034 209.62C208.997 209.72 208.941 209.869 208.867 210.066C208.72 210.458 208.5 211.037 208.215 211.781C207.643 213.269 206.806 215.416 205.745 218.042C203.622 223.297 200.607 230.467 197.038 238.131C193.467 245.799 189.353 253.935 185.033 261.134C180.694 268.366 176.227 274.516 171.978 278.321L174.581 281.228C179.275 277.025 183.984 270.468 188.379 263.142C192.794 255.784 196.972 247.515 200.575 239.778C204.181 232.037 207.223 224.802 209.363 219.504C210.433 216.854 211.279 214.687 211.857 213.181C212.147 212.427 212.369 211.839 212.52 211.438C212.595 211.238 212.653 211.085 212.691 210.981C212.711 210.929 212.725 210.889 212.735 210.862C212.74 210.849 212.744 210.839 212.747 210.832C212.748 210.828 212.749 210.826 212.75 210.824C212.75 210.823 212.75 210.822 212.75 210.822C212.751 210.821 212.751 210.821 210.92 210.146ZM161.827 183.123C160.135 183.886 158.598 185.425 157.308 187.024C155.979 188.671 154.739 190.604 153.686 192.417C152.63 194.237 151.739 195.978 151.113 197.261C150.799 197.904 150.551 198.435 150.38 198.807C150.294 198.993 150.228 199.139 150.183 199.241C150.16 199.291 150.143 199.331 150.131 199.358C150.125 199.371 150.12 199.382 150.117 199.39C150.115 199.393 150.114 199.396 150.113 199.398C150.112 199.4 150.112 199.4 150.112 199.401C150.111 199.402 150.111 199.402 150.111 199.402C150.111 199.402 150.111 199.403 151.898 200.185C153.686 200.967 153.686 200.967 153.686 200.967C153.686 200.967 153.686 200.967 153.686 200.967C153.686 200.967 153.686 200.967 153.686 200.966C153.687 200.965 153.687 200.964 153.688 200.961C153.691 200.956 153.694 200.948 153.699 200.937C153.709 200.915 153.724 200.881 153.744 200.836C153.785 200.745 153.846 200.61 153.926 200.436C154.086 200.088 154.321 199.585 154.62 198.972C155.219 197.745 156.065 196.092 157.061 194.376C158.062 192.653 159.189 190.907 160.345 189.475C161.539 187.994 162.604 187.054 163.433 186.679L161.827 183.123ZM150.637 201.673L158.694 208.502L161.217 205.525L153.16 198.696L150.637 201.673ZM158.129 206.33L154.552 215.884L158.206 217.252L161.783 207.698L158.129 206.33ZM156.379 216.568C154.428 216.528 154.428 216.528 154.428 216.529C154.428 216.529 154.428 216.53 154.428 216.531C154.428 216.533 154.428 216.536 154.428 216.539C154.428 216.546 154.428 216.556 154.427 216.568C154.427 216.593 154.426 216.629 154.426 216.676C154.424 216.77 154.423 216.907 154.421 217.086C154.418 217.445 154.416 217.969 154.42 218.639C154.429 219.98 154.46 221.908 154.555 224.27C154.744 228.991 155.184 235.46 156.191 242.444C157.197 249.42 158.775 256.962 161.259 263.807C163.735 270.629 167.167 276.92 171.978 281.228L174.581 278.321C170.449 274.621 167.298 269.008 164.927 262.476C162.566 255.969 161.037 248.711 160.053 241.887C159.071 235.072 158.639 228.742 158.454 224.114C158.361 221.802 158.33 219.918 158.323 218.616C158.319 217.965 158.32 217.459 158.323 217.118C158.325 216.948 158.326 216.819 158.328 216.733C158.328 216.69 158.329 216.658 158.329 216.637C158.329 216.627 158.329 216.619 158.329 216.615C158.33 216.612 158.33 216.611 158.33 216.61C158.33 216.609 158.33 216.609 158.33 216.609C158.33 216.609 158.33 216.609 156.379 216.568Z" fill="black"/>
<path d="M175.052 188.16L189.693 204.328C198.536 196.157 201.893 191.679 203.406 187.256C204.558 183.89 204.643 180.555 205.265 175.648C199.034 181.327 182.147 187.824 175.052 188.16Z" fill="white"/>
<path d="M166.849 204.328C166.849 204.328 172.717 190.752 175.052 188.16C166.062 186.818 162.685 184.702 162.844 182.381C162.181 188.821 163.669 199.917 166.849 204.328Z" fill="white"/>
<path d="M175.052 188.16C182.147 187.824 199.034 181.327 205.265 175.648C192.863 168.905 163.416 174.061 162.844 182.381C162.685 184.702 166.062 186.818 175.052 188.16Z" fill="#BBC5C8"/>
<path d="M162.725 183.998C162.427 190.541 162.294 203.753 166.278 203.184C170.262 202.615 172.716 190.745 175.051 188.154C175.051 188.154 186.765 204.159 191.887 202.289C196.548 200.149 203.967 193.428 205.138 175.543" stroke="black" stroke-width="3.25187" stroke-linecap="round" stroke-linejoin="round"/>
<path d="M219.9 128.994C219.9 156.515 197.59 178.825 170.069 178.825C142.549 178.825 128.391 156.515 128.391 128.994C128.391 101.474 142.549 79.1641 170.069 79.1641C197.59 79.1641 219.9 101.474 219.9 128.994Z" fill="#FFD3B3"/>
<path d="M170.069 79.1641C156.714 79.1641 146.506 84.4179 139.535 92.9716C132.142 102.044 128.391 114.829 128.391 128.994C128.391 156.515 142.549 178.825 170.069 178.825C177.541 178.825 184.628 177.18 190.989 174.234" stroke="black" stroke-width="3.90224" stroke-linecap="round"/>
<path d="M225.998 141.85C223.095 150.373 217.12 156.048 208.597 153.145C200.074 150.241 195.519 140.978 198.422 132.455C201.326 123.933 210.589 119.377 219.112 122.281C227.634 125.184 228.902 133.327 225.998 141.85Z" fill="#FFD3B3"/>
<path d="M216.078 130.203C218.252 130.676 222.217 133.209 220.685 139.56" stroke="black" stroke-width="2.83529" stroke-linecap="round"/>
<path d="M219.903 150.758C218.486 152.601 210.192 155.436 207.641 150.758" stroke="black" stroke-width="2.83529" stroke-linecap="round"/>
<path d="M199.633 111.909C199.633 111.909 198.209 136.673 199.633 137.783C201.057 138.894 205.603 140.005 206.669 138.894C207.736 137.783 212.759 121.744 214.485 121.764C219.798 121.826 225.283 123.95 226.964 130.598L238.33 97.0664L177.68 60.125V84.1946L199.633 111.909Z" fill="#353535"/>
<path d="M129.493 115.615C119.99 108.595 106.663 90.2584 122.991 67.45C123.747 72.5258 125.203 77.1718 129.869 78.9861C129.221 69.5906 133.828 53.8575 149.638 47.637C148.559 51.7408 148.343 58.2458 149.638 63.1704C149.638 63.1704 161.947 62.5124 182.682 41C187.848 50.7516 186.806 64.5342 186.806 64.5342C186.806 64.5342 194.268 67.45 206.277 58.8717C207.813 66.5777 201.987 74.7452 201.987 74.7452C201.987 74.7452 211.692 79.7162 229.906 71.6618C228.718 82.1372 221.028 104.838 199.775 111.836C180.66 101.576 138.565 86.8451 129.493 115.615Z" fill="#1C1C1C"/>
<path d="M151.227 153.57L172.81 153.57" stroke="black" stroke-width="2.12647" stroke-linecap="round"/>
<path d="M198.07 151.164L179.047 167.911" stroke="#EEB58C" stroke-width="2.12647" stroke-linecap="round"/>
<path d="M221.312 289.118L221.312 223.918C226.57 217.712 236.743 203.415 254.888 204.716" stroke="black" stroke-width="3.90224" stroke-linecap="round" stroke-linejoin="round"/>
<path d="M143.271 283.507L141.808 217.331C139.315 214.215 138.068 208.373 130.914 206.031" stroke="black" stroke-width="3.90224" stroke-linecap="round"/>
<path fill-rule="evenodd" clip-rule="evenodd" d="M136.365 178.353C136.578 186.883 128.275 193.01 128.275 193.01C115.573 205.865 103.014 198.196 98.0462 194.332C93.505 184.24 94.8068 185.607 91.5732 173.247C90.4775 171.37 92.0651 174.277 91.5732 173.247C90.1611 170.288 89.7994 165.243 80.7164 159.416C71.6334 153.59 79.7792 147.893 84.6901 150.106C89.0896 152.088 92.8975 154.717 94.8068 157.132C95.8705 158.477 96.8614 159.731 98.0462 160.813C98.0462 160.813 94.1438 146.636 92.9373 140.569C91.7308 134.502 97.5495 134.322 100.459 137.686C102.834 140.431 106.2 151.218 107.358 155.092C107.464 155.656 107.599 156.128 107.768 156.487C107.768 156.487 107.619 155.965 107.358 155.092C106.348 149.725 107.984 136.072 108.619 132.58C109.328 128.675 114.258 127.534 115.786 131.138C117.314 134.742 116.567 155.106 116.567 155.106C130.305 153.712 136.058 163.456 135.726 168.502C136.152 173.487 127.587 174.303 126.714 169.162C124.869 158.29 110.743 163.756 111.382 173.247C111.927 181.351 126.714 185.021 126.714 178.353C126.714 171.685 136.153 169.823 136.365 178.353Z" fill="#FFD3B3"/>
<path d="M126.005 209.229C126.005 204.039 125.531 196.654 128.275 193.01C115.573 205.865 103.014 198.196 98.0462 194.332C98.8977 201.36 99.6133 206.205 100.459 210.01L126.005 209.229Z" fill="#FFD3B2"/>
<path d="M91.0234 153.664C93.0103 154.986 97.5518 158.77 99.8225 163.335" stroke="black" stroke-width="2.6015" stroke-linecap="round"/>
<path d="M102.656 142.375C104.099 145.679 107.155 153.38 107.836 157.753" stroke="black" stroke-width="2.6015" stroke-linecap="round"/>
<path d="M116.921 141.828C117.602 144.76 116.921 152.3 116.353 154.983C131.964 153.842 135.867 164.354 135.867 168.079C135.867 171.803 129.481 175.768 126.429 168.619C123.092 160.801 111.957 160.908 111.669 170.989C111.381 181.07 123.458 183.865 126.926 177.089C127.338 171.743 136.33 171.503 136.222 177.51C136.086 185.018 129.711 196.929 118.498 199.339" stroke="black" stroke-width="2.6015" stroke-linecap="round"/>
<path d="M101.016 172.375C103.286 173.877 106.219 178.081 106.106 186.683" stroke="black" stroke-width="2.6015" stroke-linecap="round"/>
<path d="M95.8047 263.236L99.0689 202.445C109.516 206.713 115.374 209.411 125.821 202.445L131.569 263.236H95.8047Z" fill="white" stroke="black" stroke-width="2.6015" stroke-linecap="round" stroke-linejoin="round"/>
<path d="M91.0312 289.636L95.1616 212.285C95.1616 211.716 95.9536 209.497 97.6818 208.661V212.285C108.727 215.169 117.049 217.175 128.087 212.936V207.977C129.225 207.977 129.306 209.196 129.624 211.527L137.014 289.636H91.0312Z" fill="#353535" stroke="black" stroke-width="3.90224" stroke-linecap="round"/>
<path d="M32.2717 60.6026L19.227 40.997" stroke="#40BA3D" stroke-width="10" stroke-linecap="round"/>
<path d="M93.0006 61.6154L107.699 43.2173" stroke="#40BA3D" stroke-width="10" stroke-linecap="round"/>
<path d="M62.9438 52.5427L63.4683 28.9998" stroke="#40BA3D" stroke-width="10" stroke-linecap="round"/>
<path d="M246.199 105C246.199 126.4 232.233 134.819 227 136.353C236.336 136.353 244.905 156.155 245.256 165C246.157 147.992 258.453 136.138 264 136.353C255.29 134.337 246.46 114.897 246.199 105Z" fill="#FFE500"/>
<path d="M246.199 105C246.199 126.4 232.233 134.819 227 136.353C236.336 136.353 244.905 156.155 245.256 165C246.157 147.992 258.453 136.138 264 136.353C255.29 134.337 246.46 114.897 246.199 105Z" stroke="black"/>
<path d="M223.22 151C223.22 163.937 218.943 164.781 214.407 165.677C213.605 165.835 212.796 165.995 212 166.224C221.449 166.224 222.865 176.229 223.22 185C224.133 168.133 227.386 167.454 233 167.666C224.184 165.667 223.485 160.815 223.22 151Z" fill="#FFE500"/>
<path d="M223.22 151C223.22 163.937 218.943 164.781 214.407 165.677C213.605 165.835 212.796 165.995 212 166.224C221.449 166.224 222.865 176.229 223.22 185C224.133 168.133 227.386 167.454 233 167.666C224.184 165.667 223.485 160.815 223.22 151Z" stroke="black"/>
</g>
<defs>
<filter id="filter0_d_2064_47108" x="22" y="71" width="92.2422" height="107.57" filterUnits="userSpaceOnUse" color-interpolation-filters="sRGB">
<feFlood flood-opacity="0" result="BackgroundImageFix"/>
<feColorMatrix in="SourceAlpha" type="matrix" values="0 0 0 0 0 0 0 0 0 0 0 0 0 0 0 0 0 0 127 0" result="hardAlpha"/>
<feOffset dx="10" dy="10"/>
<feComposite in2="hardAlpha" operator="out"/>
<feColorMatrix type="matrix" values="0 0 0 0 0.00784314 0 0 0 0 0.478431 0 0 0 0 0 0 0 0 1 0"/>
<feBlend mode="normal" in2="BackgroundImageFix" result="effect1_dropShadow_2064_47108"/>
<feBlend mode="normal" in="SourceGraphic" in2="effect1_dropShadow_2064_47108" result="shape"/>
</filter>
<clipPath id="clip0_2064_47108">
<rect width="273" height="280" fill="white" transform="translate(1)"/>
</clipPath>
</defs>
</svg>
