<svg width="90" height="28" viewBox="0 0 90 28" fill="none" xmlns="http://www.w3.org/2000/svg">
<path d="M11.2608 0.64297L16.4765 3.16285C16.9208 3.37753 17.2012 3.79102 17.2617 4.242H7.90081L9.36002 1.28871C9.70458 0.591362 10.5556 0.302253 11.2608 0.64297Z" fill="#1ABEF1"/>
<path d="M6.97438 1.54601C6.79456 1.75909 6.63757 1.99681 6.50885 2.25733L5.52823 4.242H2.28575L3.64081 1.49951C3.98536 0.802159 4.83637 0.51305 5.54159 0.853767L6.97438 1.54601Z" fill="#1ABEF1"/>
<path d="M0 6.34998H17.2671V18.9627C17.2671 23.6777 13.4018 27.5 8.63357 27.5C3.86538 27.5 0 23.6777 0 18.9627V6.34998Z" fill="#1ABEF1"/>
<path fill-rule="evenodd" clip-rule="evenodd" d="M13.0747 10.5226H4.19243V18.8491C4.19243 21.2745 6.1808 23.2407 8.63357 23.2407C11.0863 23.2407 13.0747 21.2745 13.0747 18.8491V10.5226ZM2.06069 8.41461V18.8491C2.06069 22.4387 5.00347 25.3487 8.63357 25.3487C12.2637 25.3487 15.2065 22.4387 15.2065 18.8491V8.41461H2.06069Z" fill="white"/>
<path d="M9.50572 14.3319C9.50572 14.8015 9.12071 15.1822 8.64577 15.1822C8.17084 15.1822 7.78583 14.8015 7.78583 14.3319C7.78583 13.8622 8.17084 13.4815 8.64577 13.4815C9.12071 13.4815 9.50572 13.8622 9.50572 14.3319Z" fill="white"/>
<path d="M9.50572 16.9774C9.50572 17.4471 9.12071 17.8278 8.64577 17.8278C8.17084 17.8278 7.78583 17.4471 7.78583 16.9774C7.78583 16.5078 8.17084 16.1271 8.64577 16.1271C9.12071 16.1271 9.50572 16.5078 9.50572 16.9774Z" fill="white"/>
<path d="M9.50572 19.623C9.50572 20.0926 9.12071 20.4733 8.64577 20.4733C8.17084 20.4733 7.78583 20.0926 7.78583 19.623C7.78583 19.1533 8.17084 18.7726 8.64577 18.7726C9.12071 18.7726 9.50572 19.1533 9.50572 19.623Z" fill="white"/>
<path d="M41.1456 22.3789C39.9709 22.3789 38.8991 22.1102 37.93 21.5726C36.9756 21.0351 36.2121 20.3015 35.6395 19.3717C35.0815 18.4419 34.8025 17.3814 34.8025 16.1901C34.8025 14.9988 35.0815 13.9383 35.6395 13.0085C36.2121 12.0787 36.9756 11.345 37.93 10.8075C38.8844 10.27 39.9562 10.0012 41.1456 10.0012C42.3202 10.0012 43.3847 10.27 44.3391 10.8075C45.2935 11.345 46.0497 12.0787 46.6076 13.0085C47.1803 13.9237 47.4666 14.9843 47.4666 16.1901C47.4666 17.3814 47.1803 18.4419 46.6076 19.3717C46.035 20.3015 45.2715 21.0351 44.3171 21.5726C43.3627 22.1102 42.3055 22.3789 41.1456 22.3789ZM41.1456 19.7639C41.7916 19.7639 42.3569 19.6114 42.8414 19.3063C43.3407 19.0012 43.7298 18.5799 44.0087 18.0424C44.3024 17.4903 44.4492 16.8729 44.4492 16.1901C44.4492 15.4927 44.3024 14.8826 44.0087 14.3596C43.7298 13.822 43.3407 13.4007 42.8414 13.0956C42.3569 12.776 41.7916 12.6162 41.1456 12.6162C40.4848 12.6162 39.9049 12.776 39.4056 13.0956C38.9064 13.4007 38.51 13.822 38.2163 14.3596C37.9373 14.8826 37.7979 15.4927 37.7979 16.1901C37.7979 16.8729 37.9373 17.4903 38.2163 18.0424C38.51 18.5799 38.9064 19.0012 39.4056 19.3063C39.9049 19.6114 40.4848 19.7639 41.1456 19.7639Z" fill="#185894"/>
<path d="M54.544 22.3789C53.3547 22.3789 52.2828 22.1102 51.3284 21.5726C50.3887 21.0206 49.6472 20.2797 49.1039 19.3499C48.5607 18.4056 48.289 17.345 48.289 16.1683C48.289 14.9915 48.5607 13.9383 49.1039 13.0085C49.6472 12.0787 50.3887 11.345 51.3284 10.8075C52.2828 10.27 53.3547 10.0012 54.544 10.0012C55.3956 10.0012 56.1885 10.1538 56.9226 10.4588C57.6568 10.7494 58.2881 11.1562 58.8167 11.6792C59.36 12.1877 59.7491 12.7978 59.984 13.5097L57.4512 14.5993C57.231 14.0036 56.8565 13.5242 56.328 13.161C55.8141 12.7978 55.2194 12.6162 54.544 12.6162C53.9126 12.6162 53.3473 12.7688 52.8481 13.0738C52.3636 13.3789 51.9818 13.8002 51.7028 14.3378C51.4239 14.8753 51.2844 15.4927 51.2844 16.1901C51.2844 16.8874 51.4239 17.5048 51.7028 18.0424C51.9818 18.5799 52.3636 19.0012 52.8481 19.3063C53.3473 19.6114 53.9126 19.7639 54.544 19.7639C55.2341 19.7639 55.8361 19.5823 56.35 19.2191C56.8639 18.8559 57.231 18.3692 57.4512 17.7591L59.984 18.8923C59.7491 19.5605 59.3673 20.1634 58.8387 20.701C58.3102 21.224 57.6788 21.638 56.9446 21.9431C56.2105 22.2337 55.4103 22.3789 54.544 22.3789Z" fill="#185894"/>
<path d="M87.0928 22.1174V19.0666H90V22.1174H87.0928Z" fill="#185894"/>
<path fill-rule="evenodd" clip-rule="evenodd" d="M21.8923 5.88257V22.1174H24.8876V17.563L27.09 14.9697L31.4949 22.1174H35.0188L29.1298 12.556L34.8206 5.88257H31.0544L24.8876 13.1007V5.88257H21.8923Z" fill="#185894"/>
<path fill-rule="evenodd" clip-rule="evenodd" d="M63.7369 21.5508C64.662 22.1029 65.7412 22.3789 66.9745 22.3789C67.7968 22.3789 68.5456 22.2554 69.221 22.0085C69.9111 21.7615 70.5058 21.4201 71.005 20.9843C71.5042 20.5484 71.8713 20.0472 72.1062 19.4806L69.7716 18.3475C69.5073 18.8123 69.1402 19.1828 68.6704 19.4588C68.2152 19.7349 67.6573 19.8729 66.9965 19.8729C66.3358 19.8729 65.7485 19.7203 65.2346 19.4153C64.7354 19.1102 64.3536 18.6816 64.0893 18.1295C63.9362 17.7819 63.8411 17.4042 63.804 16.9964H72.4366C72.4953 16.8366 72.532 16.6477 72.5467 16.4298C72.5761 16.2119 72.5907 16.0012 72.5907 15.7978C72.5907 14.9988 72.4586 14.2579 72.1943 13.5751C71.93 12.8777 71.5483 12.2603 71.049 11.7228C70.5498 11.1852 69.9405 10.7639 69.221 10.4588C68.5162 10.1538 67.694 10.0012 66.7543 10.0012C65.6384 10.0012 64.6252 10.27 63.7149 10.8075C62.8192 11.345 62.1071 12.0787 61.5785 13.0085C61.0646 13.9237 60.8077 14.977 60.8077 16.1683C60.8077 17.316 61.0646 18.362 61.5785 19.3063C62.0924 20.2506 62.8119 20.9988 63.7369 21.5508ZM63.8635 14.8172C63.9103 14.567 63.9783 14.3346 64.0673 14.1199C64.3169 13.5387 64.6766 13.1029 65.1465 12.8123C65.6164 12.5073 66.1523 12.3547 66.7543 12.3547C67.3856 12.3547 67.9216 12.5073 68.3621 12.8123C68.8172 13.1174 69.1403 13.5315 69.3311 14.0545C69.4251 14.2935 69.4838 14.5478 69.5072 14.8172H63.8635Z" fill="#185894"/>
<path fill-rule="evenodd" clip-rule="evenodd" d="M73.8969 5.62107V22.1174H76.7821V18.5L78.3343 16.8518L81.6935 22.1174H84.9972L80.4822 15.0351L84.9091 10.2627H81.3191L76.7821 14.9622V5.62107H73.8969Z" fill="#185894"/>
</svg>
