<svg width="274" height="293" viewBox="0 0 274 293" fill="none" xmlns="http://www.w3.org/2000/svg">
<rect y="114" width="274" height="179" rx="20" fill="#11B1E2"/>
<g clip-path="url(#clip0_2059_34767)">
<path d="M151.07 277.899C155.114 295.875 157.847 308.238 160.002 326.729C177.55 329.418 221.326 347.806 241.301 326.728C243.123 321.644 238.899 297.063 238.531 291.755C238.164 286.446 234.697 270.638 231.352 256.751C226.159 235.191 180.282 255.145 151.07 277.899Z" fill="#90CC43"/>
<path d="M157.064 232.378L143.509 258.512L189.169 262.225L186.292 222.839L163.001 222.161L157.064 232.378Z" fill="#90CC43"/>
<path d="M77.65 209.348C59.2233 214.083 63.2534 229.376 67.5718 236.431C81.2286 232.168 80.9803 239.913 85.7871 241.922L106.51 248.731C105.585 236.459 93.5702 223.568 87.6787 218.657C86.8538 213.212 80.9131 209.949 77.65 209.348Z" fill="#FFD3B3"/>
<path d="M69.0296 236.597C75.9506 235.746 80.5559 232.579 82.4414 229.268" stroke="black" stroke-width="1.48624" stroke-linecap="round"/>
<path d="M53.8448 213.575C54.7979 208.807 69.6648 205.884 78.9517 210.142L75.2421 218.711C75.2421 218.711 65.5468 219.807 59.3001 218.152C55.9312 217.259 53.4345 215.627 53.8448 213.575Z" fill="#FFD3B3"/>
<path d="M59.3721 218.264C56.0033 217.371 53.5437 216.017 53.954 213.965C54.9071 209.197 65.439 207.268 70.8009 207.72C76.1627 208.171 88.5776 211.943 87.5631 218.142C92.36 221.415 102.97 233.476 106.601 245.405" stroke="#151515" stroke-width="1.48624" stroke-linecap="round" stroke-linejoin="round"/>
<path d="M75.0705 213.582C62.1162 213.304 34.6996 214.542 35.0821 221.152C35.4646 227.762 60.86 224.644 74.5868 222.102L75.0705 213.582Z" fill="#FFD3B3"/>
<path d="M69.4822 213.164C56.5278 212.886 34.3193 214.219 34.7018 220.829C35.0843 227.439 51.0773 226.424 64.8041 223.883" stroke="#151515" stroke-width="1.48624" stroke-linecap="round"/>
<path d="M66.8836 220.518C53.9408 219.001 26.5491 220.588 26.8952 228.088C27.2413 235.588 52.6731 231.58 66.3999 229.039L66.8836 220.518Z" fill="#FFD3B3"/>
<path d="M58.247 218.724C50.3701 218.717 26.133 221.149 26.5155 227.759C26.898 234.369 42.891 233.353 56.6178 230.812" stroke="#151515" stroke-width="1.48624" stroke-linecap="round"/>
<path d="M69.9377 224.387C56.9833 224.108 29.5668 225.347 29.9493 231.957C30.3318 238.567 55.7272 235.448 69.454 232.907L69.9377 224.387Z" fill="#FFD3B3"/>
<path d="M58.822 223.727C45.3986 224.566 29.666 227.049 29.95 231.957C30.2922 237.87 50.6478 235.999 64.7636 233.719" stroke="#151515" stroke-width="1.48624" stroke-linecap="round"/>
<path d="M69.4281 229.499C58.6858 229.268 35.9509 230.295 36.268 235.777C36.5852 241.258 56.9506 238.76 68.3335 236.652L69.4281 229.499Z" fill="#FFD3B3"/>
<path d="M36.2721 235.799L37.014 235.756L36.2721 235.799ZM57.0898 230.515C57.4995 230.491 57.8118 230.139 57.7873 229.729C57.7628 229.319 57.4108 229.007 57.0011 229.032L57.0898 230.515ZM46.9597 239.074L46.9678 239.817L46.9597 239.074ZM49.7183 230.414L49.6295 229.676L49.7183 230.414ZM35.5302 235.842C35.5813 236.726 36.0275 237.433 36.6995 237.968C37.3529 238.488 38.2327 238.858 39.2341 239.126C41.2393 239.664 43.9561 239.85 46.9678 239.817L46.9515 238.331C43.9786 238.363 41.4247 238.175 39.6189 237.691C38.7147 237.449 38.0539 237.146 37.6247 236.805C37.2142 236.478 37.0359 236.136 37.014 235.756L35.5302 235.842ZM46.9678 239.817C54.0245 239.74 63.0168 238.456 69.1663 237.318L68.8958 235.856C62.7774 236.989 53.8823 238.255 46.9515 238.331L46.9678 239.817ZM57.0011 229.032C54.5221 229.18 52.0114 229.39 49.6295 229.676L49.807 231.152C52.1531 230.87 54.6333 230.662 57.0898 230.515L57.0011 229.032ZM49.6295 229.676C45.8834 230.127 42.4144 230.771 39.8849 231.679C38.6243 232.132 37.5424 232.668 36.7742 233.319C35.997 233.978 35.471 234.82 35.5302 235.842L37.014 235.756C36.991 235.359 37.1722 234.93 37.7351 234.453C38.307 233.969 39.1981 233.505 40.387 233.078C42.7567 232.228 46.0929 231.599 49.807 231.152L49.6295 229.676Z" fill="#151515"/>
<path fill-rule="evenodd" clip-rule="evenodd" d="M135.222 239.871C138.764 230.492 149.747 224.079 158.671 222.781C161.087 229.619 158.337 236.423 153.445 253.715C139.381 250.232 137.246 239.538 135.222 239.871Z" fill="#90CC43"/>
<path d="M135.222 239.871C135.222 239.871 101.329 228.99 89.5201 218.697C91.5285 225.025 88.4367 235.387 81.2107 238.001C103.803 258.955 125.194 293.32 145.121 273.088C151.173 266.943 151.487 260.632 153.445 253.715C139.381 250.232 137.246 239.538 135.222 239.871Z" fill="white"/>
<path d="M168.148 227.891C168.215 235.561 168.826 254.079 170.737 266.788" stroke="black" stroke-width="1.59341"/>
<path d="M136.726 213.702C141.313 216.663 131.787 227.611 135.57 238.666C137.243 242.235 141.84 247.731 146.893 251.537L134.647 269.468L121.257 260.816C111.964 258.495 111.672 257.597 103.975 254.082L112.881 222.013L123.888 229.126C123.191 220.716 130.491 209.676 136.726 213.702Z" fill="#FFD3B3"/>
<path d="M96.9686 244.529C99.8951 239.903 105.451 243.457 108.789 246.633L103.98 254.076C99.8059 252.274 94.042 249.154 96.9686 244.529Z" fill="#FFD3B3"/>
<path d="M99.05 236.811C101.977 232.186 109.5 237.192 112.838 240.367L108.028 247.811C103.854 246.008 96.1234 241.436 99.05 236.811Z" fill="#FFD3B3"/>
<path d="M101.882 228.774C104.808 224.149 113.548 230.926 116.886 234.102L112.077 241.545C107.903 239.743 98.9553 233.399 101.882 228.774Z" fill="#FFD3B3"/>
<path d="M107.696 223.646C110.623 219.02 118.039 224.322 121.377 227.498L116.56 234.834C112.386 233.032 104.77 228.271 107.696 223.646Z" fill="#FFD3B3"/>
<path d="M121.594 260.831C90.1107 251.446 96.1884 244.557 100.123 242.301C94.6446 238.304 99.7873 233.674 102.703 234.925C98.1163 230.487 103.319 225.343 107.202 228.273C105.757 223.88 109.414 216.385 124.129 229.65C123.692 222.731 128.032 208.406 136.45 214.063C140.257 216.622 134.086 228.638 134.544 237.514" stroke="black" stroke-width="1.88409" stroke-linecap="round" stroke-linejoin="round"/>
<path d="M167.759 224.864C167.759 224.864 180.268 234.53 182.27 234.248C184.273 233.965 199.279 215.546 198.812 213.089C198.345 210.632 197.828 207.326 196.27 206.685C191.757 213.905 170.875 224.266 167.759 224.864Z" fill="white"/>
<path d="M167.759 224.864C164.643 225.461 160.458 224.727 157.397 220.918C156.652 227.22 160.572 236.182 161.517 236.003C162.462 235.823 167.759 224.864 167.759 224.864Z" fill="white"/>
<path fill-rule="evenodd" clip-rule="evenodd" d="M198.812 213.089C199.279 215.546 184.273 233.965 182.27 234.248L179.218 256.474C190.272 256.441 201.514 253.985 209.87 247.564C217.466 251.821 231.03 261.69 232.618 271.626C244.023 257.226 245.121 241.113 242.691 227.853C235.097 217.252 211.689 213.218 198.812 213.089Z" fill="#90CC43"/>
<path d="M179.218 256.474L174.831 288.426C187.856 291.578 198.929 291.152 208.154 288.379C216.473 285.879 223.289 281.471 228.682 276.058C230.091 274.644 231.402 273.161 232.618 271.626C231.03 261.69 217.466 251.821 209.87 247.564C201.514 253.985 190.272 256.441 179.218 256.474Z" fill="white"/>
<path d="M143.908 247.765C149.763 261.016 136.819 264.392 129.165 264.456C131.836 266.525 134.46 268.452 137.037 270.245C151.012 279.964 163.605 285.709 174.831 288.426L179.218 256.474C164.909 256.517 150.914 252.499 143.908 247.765Z" fill="white"/>
<path d="M167.759 224.864C170.875 224.266 191.757 213.905 196.27 206.685C189.069 203.722 158.28 213.448 157.397 220.918C160.458 224.727 164.643 225.461 167.759 224.864Z" fill="#BBC5C8"/>
<path d="M242.691 227.853C245.121 241.113 244.023 257.226 232.618 271.626C232.548 275.427 231.159 283.856 226.165 287.159C255.74 273.518 249.506 241.938 242.691 227.853Z" fill="#90CC43"/>
<path d="M232.618 271.626C231.402 273.161 230.091 274.644 228.682 276.058C223.289 281.471 216.473 285.879 208.154 288.379C213.849 290.295 218.621 290.639 226.165 287.159C231.159 283.856 232.548 275.427 232.618 271.626Z" fill="#567A27"/>
<path d="M215.615 175.701C209.294 202.243 182.653 218.635 156.111 212.314C129.569 205.993 121.039 181.225 127.36 154.683C133.681 128.141 152.46 109.877 179.001 116.198C205.543 122.519 221.936 149.159 215.615 175.701Z" fill="#FFD3B3"/>
<path d="M179.001 116.198C163.96 112.616 151.411 116.93 142.21 126.171C135.176 133.237 130.098 143.183 127.36 154.683C121.039 181.225 129.569 205.993 156.111 212.314C160.8 213.431 165.491 213.839 170.073 213.607" stroke="#151515" stroke-width="3.98353" stroke-linecap="round"/>
<path d="M218.557 189.492C213.799 197.045 206.733 201.146 199.18 196.388C191.627 191.63 189.362 181.65 194.12 174.098C198.877 166.545 208.857 164.279 216.41 169.037C223.963 173.795 223.315 181.939 218.557 189.492Z" fill="#FFD3B3"/>
<path d="M235.537 153.356L218.724 170.842C203.839 162.732 196.628 182.665 190.986 182.694C185.345 182.723 198.345 151.794 198.345 151.794C152.92 125.835 137.528 130.304 134.754 135.972C117.783 118.176 119.463 97.0819 122.834 89.0956C133.104 99.0543 144.712 100.663 153.385 100.344C152.971 95.0447 151.633 92.5347 148.069 89.9042C161.291 90.6836 181.937 99.5592 186.273 104.204C182.773 98.5158 188.598 87.0451 190.669 85.746C195.877 99.0646 211.843 109.98 218.67 115.892C220.678 111.342 226.584 109.758 229.286 109.535C227.366 125.606 232.932 145.487 235.537 153.356Z" fill="#1F1F1F"/>
<path d="M211.664 175.992C213.652 176.947 216.894 180.301 213.959 186.074" stroke="#151515" stroke-width="2.39012" stroke-linecap="round"/>
<path d="M136.169 168.069L181.765 168.791C189.974 213.552 127.748 216.198 136.169 168.069Z" fill="white"/>
<mask id="mask0_2059_34767" style="mask-type:alpha" maskUnits="userSpaceOnUse" x="135" y="168" width="48" height="36">
<path d="M136.153 168.069L181.749 168.791C189.959 213.552 127.732 216.198 136.153 168.069Z" fill="white"/>
</mask>
<g mask="url(#mask0_2059_34767)">
<path d="M144.586 167.358C141.665 179.858 141.429 186.849 143.766 199.286M157.892 167.798C155.867 182.089 156.251 190.085 158.393 204.329M169.386 167.338C168.411 180.903 169.477 187.827 173.038 199.474" stroke="#151515" stroke-width="2.39012"/>
</g>
<path d="M135.208 167.526C141.999 168.26 161.99 169.133 182.937 168.133" stroke="#151515" stroke-width="2.39012" stroke-linecap="round"/>
<path d="M179.504 169.813C179.714 172.731 182.249 174.926 185.166 174.716C186.617 170.14 186.548 167.802 184.407 164.152C181.49 164.361 179.295 166.896 179.504 169.813Z" fill="#FFD3B3"/>
<path d="M185.166 174.716C182.249 174.926 179.714 172.731 179.504 169.813C179.295 166.896 181.49 164.361 184.407 164.152" stroke="#151515" stroke-width="2.39012" stroke-linecap="round"/>
<path d="M210.623 196.691C208.833 198.143 200.183 198.973 198.797 193.875" stroke="#151515" stroke-width="2.39012" stroke-linecap="round"/>
<path d="M217.365 235.159C210.626 252.189 193.18 258.382 179.738 255.995" stroke="#151515" stroke-width="3.98353" stroke-linecap="round"/>
<path d="M144.311 248.351C147.665 262.218 135.44 264.319 128.926 263.766C137.974 271.493 159.846 287.342 174.957 288.928" stroke="#151515" stroke-width="3.98353" stroke-linecap="round" stroke-linejoin="round"/>
<path d="M60.0594 121.362L76.2474 127.988C77.6265 128.552 78.5523 129.753 78.8241 131.111L50.6712 132.957L54.4714 123.698C55.3688 121.512 57.8706 120.466 60.0594 121.362Z" fill="white"/>
<path d="M47.3479 124.95C46.8495 125.633 46.4247 126.386 46.0895 127.203L43.5356 133.425L33.7839 134.065L37.3129 125.467C38.2102 123.28 40.712 122.234 42.9008 123.13L47.3479 124.95Z" fill="white"/>
<path d="M81.7728 175.827L79.2603 137.513L74.0684 153.255L75.5527 175.888C76.2074 185.872 69.329 194.612 59.7832 196.566L57.5081 203.463C71.8484 202.523 82.7121 190.15 81.7728 175.827Z" fill="white" fill-opacity="0.7"/>
<path fill-rule="evenodd" clip-rule="evenodd" d="M27.3294 140.919L79.2603 137.513L74.0684 153.255L73.4741 144.192L33.9382 146.784L36.0168 178.481C36.7319 189.385 46.162 197.644 57.0795 196.928C58.0009 196.868 58.9034 196.746 59.7832 196.566L57.5081 203.463C43.1678 204.404 30.7812 193.555 29.8419 179.233L27.3294 140.919ZM67.4828 151.015L40.7694 152.767L42.428 178.061C42.9112 185.428 49.2829 191.009 56.6596 190.525C58.7196 190.39 60.6402 189.796 62.328 188.85L68.6975 169.539L67.4828 151.015ZM55.091 166.043C56.5194 165.95 57.6014 164.717 57.5079 163.291C57.4143 161.864 56.1806 160.784 54.7522 160.877C53.3238 160.971 52.2418 162.203 52.3353 163.63C52.4289 165.057 53.6626 166.137 55.091 166.043ZM58.0349 171.327C58.1285 172.754 57.0464 173.986 55.618 174.08C54.1897 174.174 52.9559 173.093 52.8623 171.666C52.7688 170.24 53.8509 169.007 55.2792 168.914C56.7076 168.82 57.9413 169.901 58.0349 171.327ZM56.145 182.116C57.5734 182.023 58.6555 180.79 58.5619 179.363C58.4684 177.937 57.2346 176.856 55.8062 176.95C54.3779 177.044 53.2958 178.276 53.3893 179.703C53.4829 181.129 54.7167 182.21 56.145 182.116Z" fill="white"/>
<path d="M62.328 188.85C62.5289 188.737 62.7265 188.62 62.9206 188.497C66.9361 185.965 69.4736 181.374 69.1415 176.309L68.6975 169.539L62.328 188.85Z" fill="white" fill-opacity="0.7"/>
<path d="M89.2322 219.357C93.0569 222.01 89.7147 234.672 80.914 237.542" stroke="#151515" stroke-width="1.59341" stroke-linecap="round"/>
<circle cx="168.17" cy="226.931" r="3.71234" transform="rotate(4.64848 168.17 226.931)" fill="#FFE600" stroke="black" stroke-width="1.59341"/>
<circle cx="168.818" cy="243.627" r="3.71234" transform="rotate(4.64848 168.818 243.627)" fill="#FFE600" stroke="black" stroke-width="1.59341"/>
<path d="M98.8154 125.711C98.8151 139.797 89.5159 145.337 86.0312 146.347C92.2476 146.347 97.9537 159.381 98.1873 165.203C98.7878 154.008 106.975 146.206 110.669 146.347C104.869 145.02 98.9892 132.225 98.8154 125.711Z" fill="#FFE500"/>
<path d="M109.476 155.766C109.476 165.869 105.578 164.86 102.094 165.869C108.31 165.869 109.242 172.51 109.476 178.331C110.076 167.136 112.217 166.686 115.91 166.827C110.11 165.5 109.65 162.28 109.476 155.766Z" fill="#FFE500"/>
<path d="M225.68 287.28C228.521 286.188 234.973 283.064 238.047 279.312" stroke="#151515" stroke-width="1.83434" stroke-linecap="round"/>
</g>
<defs>
<clipPath id="clip0_2059_34767">
<rect width="222" height="214" fill="white" transform="translate(26 79)"/>
</clipPath>
</defs>
</svg>
