<svg width="117" height="117" viewBox="0 0 117 117" fill="none" xmlns="http://www.w3.org/2000/svg">
<path d="M32.4311 96.6054H41.5965C42.3747 96.6054 42.9368 96.7783 43.4988 97.3836L50.027 103.869C55.777 109.619 61.2244 109.619 66.9744 103.869L73.4594 97.3836C74.0647 96.7783 74.6267 96.6054 75.4049 96.6054H84.5704C92.6982 96.6054 96.5892 92.7144 96.5892 84.5866V75.4211C96.5892 74.6429 96.8054 74.0809 97.3674 73.4756L103.852 66.9906C109.646 61.2406 109.602 55.7932 103.852 50.0432L97.3674 43.515C96.8054 42.953 96.5892 42.3909 96.5892 41.6127V32.4473C96.5892 24.3194 92.6982 20.4284 84.5704 20.4284H75.4049C74.6267 20.4284 74.0647 20.2123 73.4594 19.6502L66.9744 13.1653C61.2244 7.372 55.777 7.372 50.027 13.1653L43.4988 19.6502C42.9368 20.2123 42.3747 20.4284 41.5965 20.4284H32.4311C24.26 20.4284 20.4122 24.233 20.4122 32.4473V41.6127C20.4122 42.3909 20.1961 42.953 19.634 43.515L13.1491 50.0432C7.3558 55.7932 7.39903 61.2406 13.1491 66.9906L19.634 73.4756C20.1961 74.0809 20.4122 74.6429 20.4122 75.4211V84.5866C20.4122 92.7144 24.26 96.6054 32.4311 96.6054ZM53.7018 80.0038C51.9293 80.0038 50.5458 79.2256 49.2488 77.626L38.8296 65.0451C37.9649 63.9643 37.5758 62.9267 37.5758 61.7594C37.5758 59.3383 39.5213 57.4361 41.8992 57.4361C43.3259 57.4361 44.4499 57.9549 45.574 59.3816L53.5721 69.3685L70.9951 41.5695C72.0327 39.9266 73.3297 39.1052 74.8429 39.1052C77.1775 39.1052 79.3391 40.7913 79.3391 43.2124C79.3391 44.25 78.8203 45.374 78.1718 46.4116L57.9819 77.5395C56.9443 79.1392 55.4312 80.0038 53.7018 80.0038Z" fill="#64CC4A"/>
</svg>
