<svg width="16" height="14" viewBox="0 0 16 14" fill="none" xmlns="http://www.w3.org/2000/svg">
<path d="M15.3828 7C15.3828 7.23438 15.2812 7.46094 15.1016 7.63281L9.94531 12.7812C9.75781 12.9609 9.55469 13.0469 9.33594 13.0469C8.85156 13.0469 8.5 12.6953 8.5 12.2266C8.5 11.9844 8.59375 11.7734 8.75 11.625L10.5 9.85156L12.8047 7.74219L10.9844 7.85156H1.48438C0.96875 7.85156 0.617188 7.5 0.617188 7C0.617188 6.49219 0.96875 6.14844 1.48438 6.14844H10.9844L12.7969 6.25781L10.5 4.14844L8.75 2.375C8.59375 2.21875 8.5 2.00781 8.5 1.76562C8.5 1.29688 8.85156 0.953125 9.33594 0.953125C9.55469 0.953125 9.76562 1.03125 9.96094 1.22656L15.1016 6.36719C15.2812 6.53125 15.3828 6.76562 15.3828 7Z" fill="white"/>
</svg>
